<svg xmlns="http://www.w3.org/2000/svg" viewBox="0 0 1000 560" width="1000" height="560"><rect x="60" y="120" width="520" height="300" rx="18" fill="#111114"></rect><rect x="213.725" y="218.8" width="32.400000000000006" height="32.400000000000006" rx="7.128000000000001" fill="#FF2E6E"></rect><path d="M 226.5554,228.9088 L 236.0162,235.0 L 226.5554,241.09120000000001 Z" fill="#FFFFFF"></path><rect x="229.4066" y="228.9088" width="0.9720000000000001" height="12.182400000000003" fill="#FF2E6E"></rect><rect x="232.1282" y="229.91320000000002" width="0.9720000000000001" height="10.173600000000002" fill="#FF2E6E"></rect><text x="256.325" y="245.8" font-family="Outfit" font-weight="600" font-size="30" letter-spacing="-0.8999999999999999"><tspan fill="#FFFFFF">axess</tspan><tspan fill="#FF2E6E">player</tspan></text><text x="100" y="370" font-family="Outfit" font-weight="600" font-size="20" fill="#FFFFFF">Malena Cutuli</text><text x="100" y="396" font-family="Inter" font-size="15" fill="#9A9AA2">Founder &amp; CEO</text><rect x="430" y="180" width="520" height="300" rx="18" fill="#FAFAF8" stroke="#ECECEC" stroke-width="2"></rect><rect x="465.0" y="215.0" width="70" height="70" rx="15.4" fill="#FF2E6E"></rect><path d="M 492.72,236.84 L 513.16,250.0 L 492.72,263.15999999999997 Z" fill="#FFFFFF"></path><rect x="498.88" y="236.84" width="2.1" height="26.32" fill="#FF2E6E"></rect><rect x="504.76" y="239.01" width="2.1" height="21.98" fill="#FF2E6E"></rect><text x="470" y="370" font-family="Inter" font-size="16" fill="#111114">malena@axessible.ai</text><text x="470" y="398" font-family="Inter" font-size="16" fill="#6B6B72">axessplayer.com</text><text x="470" y="426" font-family="Inter" font-size="14" fill="#6B6B72">Axessible Technologies</text></svg>